<svg height="81" width="81" xmlns="http://www.w3.org/2000/svg" viewBox="0 0 81 81"><path fill-rule="evenodd" d="M40.5 0C18.17 0 0 18.17 0 40.5S18.17 81 40.5 81 81 62.83 81 40.5 62.83 0 40.5 0zm1.62 77.72v-1.58a1.62 1.62 0 1 0-3.24 0v1.58c-19.26-.83-34.77-16.34-35.6-35.6h1.58c.9 0 1.62-.73 1.62-1.62 0-.9-.72-1.62-1.62-1.62H3.28c.83-19.26 16.34-34.77 35.6-35.6v1.58c0 .89.73 1.62 1.62 1.62.89 0 1.62-.73 1.62-1.62V3.28c19.26.83 34.77 16.34 35.6 35.6h-1.58c-.9 0-1.62.72-1.62 1.62 0 .89.72 1.62 1.62 1.62h1.58c-.83 19.26-16.34 34.77-35.6 35.6zm17.96-58.91L35.55 35.12c-.17.11-.32.26-.43.43L18.81 60.08c-.41.6-.33 1.41.19 1.92.29.3.68.45 1.08.45.29 0 .58-.09.84-.26l24.53-16.31c.17-.12.32-.26.43-.43l16.31-24.53c.41-.6.32-1.41-.19-1.92s-1.32-.59-1.92-.19zM37.49 37.49l6.02 6.02-17.96 11.94 11.94-17.96z"/></svg>