<svg height="66" width="67" xmlns="http://www.w3.org/2000/svg" viewBox="0 0 67 66"><path fill-rule="evenodd" d="M66.08 53.3L53.37 65.99 32.49 45.13l1.91-1.9 18.97 18.95 8.9-8.88-.88-.87-1.75 1.74-1.91-1.91 1.75-1.74-2.14-2.14-3.1 3.09-1.9-1.9 3.09-3.09-2.14-2.14-1.75 1.74-1.91-1.9 1.75-1.75-2.14-2.14-3.1 3.1-1.9-1.91 3.09-3.09-2.14-2.14-1.75 1.74-1.9-1.9 2.7-2.7.95-.95L66.08 53.3zm-5.02-38.99L14.41 60.9c-.17.17-.38.28-.61.35l-10.11 2.7c-.11.04-.23.05-.35.05-.35 0-.7-.14-.95-.39-.34-.35-.48-.84-.35-1.31l2.71-10.09c.06-.23.18-.44.35-.61l16.93-16.91L0 12.69 12.71 0l22.03 22L51.75 5.02h.01l1.11-1.11c2.57-2.56 6.73-2.56 9.29 0a6.55 6.55 0 0 1 0 9.28l-1.11 1.11-7.39-7.37-46.4 46.32v.02l5.48 5.47h.01l46.4-46.33 1.91 1.9zM23.94 32.79l7.15-7.14-1.7-1.7 1.74-1.74-2.14-2.14-3.09 3.09-1.91-1.9 3.09-3.09-2.14-2.14-1.74 1.74-1.91-1.9 1.74-1.75-2.14-2.14-3.09 3.1-1.91-1.91 3.09-3.09-2.14-2.14-1.74 1.74-1.91-1.9 1.74-1.75-2.22-2.22-8.89 8.88 20.12 20.1z"/></svg>