<svg height="77" width="78" xmlns="http://www.w3.org/2000/svg" viewBox="0 0 78 77"><path fill-rule="evenodd" d="M38.9 27.7c-5.95 0-10.79 4.83-10.79 10.78 0 5.94 4.84 10.78 10.79 10.78 5.95 0 10.79-4.84 10.79-10.78 0-5.95-4.84-10.78-10.79-10.78zm0 18.48c-4.25 0-7.71-3.46-7.71-7.7 0-4.25 3.46-7.7 7.71-7.7s7.71 3.45 7.71 7.7c0 4.24-3.46 7.7-7.71 7.7zm37.26-13.91l-8.23-1.34a29.73 29.73 0 0 0-3.19-7.64l4.81-6.84c.43-.61.36-1.44-.17-1.97l-6.54-6.53c-.53-.54-1.38-.61-1.99-.17l-6.78 4.87a29.886 29.886 0 0 0-7.65-3.17l-1.45-8.22c-.13-.74-.77-1.28-1.52-1.28H34.2c-.75 0-1.4.55-1.52 1.29l-1.34 8.22c-2.65.69-5.19 1.75-7.58 3.15l-6.81-4.86c-.62-.44-1.46-.37-1.99.16l-6.55 6.53c-.52.53-.6 1.36-.17 1.97l4.81 6.86a29.913 29.913 0 0 0-3.17 7.6l-8.24 1.37c-.74.12-1.29.77-1.29 1.52v9.24c0 .75.54 1.39 1.28 1.52L9.87 46c.69 2.66 1.75 5.21 3.15 7.6l-4.87 6.8c-.44.61-.37 1.45.17 1.98l6.54 6.53c.52.53 1.36.6 1.97.18l6.87-4.8a29.45 29.45 0 0 0 7.61 3.16l1.37 8.24c.12.74.77 1.29 1.52 1.29h9.25c.75 0 1.39-.54 1.52-1.27l1.46-8.24c2.7-.69 5.27-1.76 7.68-3.19l6.86 4.81c.61.43 1.45.35 1.97-.18l6.54-6.53c.54-.53.61-1.37.17-1.98l-4.88-6.77c1.41-2.41 2.48-4.97 3.17-7.64l8.24-1.44c.73-.13 1.27-.77 1.27-1.52v-9.24c0-.76-.55-1.4-1.29-1.52zm-1.79 9.47l-7.96 1.39c-.62.11-1.1.57-1.24 1.18-.67 3.03-1.87 5.91-3.55 8.56-.34.53-.32 1.21.05 1.72l4.71 6.54-4.7 4.69-6.62-4.64a1.54 1.54 0 0 0-1.72-.03 26.778 26.778 0 0 1-8.58 3.56c-.61.13-1.08.62-1.19 1.23l-1.41 7.96h-6.65l-1.33-7.96c-.1-.62-.57-1.11-1.18-1.25a26.38 26.38 0 0 1-8.53-3.54c-.52-.33-1.2-.32-1.71.04l-6.64 4.63-4.7-4.69 4.7-6.56c.37-.52.39-1.2.05-1.73-1.68-2.64-2.86-5.5-3.54-8.51-.13-.61-.62-1.07-1.23-1.18l-7.96-1.41v-6.65l7.95-1.32c.62-.1 1.12-.57 1.25-1.18a26.76 26.76 0 0 1 3.55-8.52c.34-.52.32-1.2-.03-1.71l-4.65-6.62 4.71-4.7 6.57 4.69c.52.37 1.2.39 1.73.05 2.64-1.67 5.5-2.86 8.51-3.52A1.55 1.55 0 0 0 34.21 11l1.3-7.94h6.65l1.39 7.95c.11.61.58 1.1 1.19 1.23 3.03.68 5.91 1.87 8.57 3.56.53.34 1.21.32 1.73-.05l6.54-4.7 4.7 4.69-4.64 6.61a1.54 1.54 0 0 0-.04 1.72c1.69 2.64 2.89 5.51 3.56 8.55.14.61.64 1.08 1.26 1.18l7.95 1.3v6.64zM38.9 16.92c-11.9 0-21.59 9.67-21.59 21.56 0 11.88 9.69 21.56 21.59 21.56 11.91 0 21.59-9.68 21.59-21.56 0-11.89-9.68-21.56-21.59-21.56zm0 40.04c-10.2 0-18.5-8.29-18.5-18.48C20.4 28.29 28.7 20 38.9 20c10.21 0 18.5 8.29 18.5 18.48 0 10.19-8.29 18.48-18.5 18.48z"/></svg>