<svg height="74" width="73" xmlns="http://www.w3.org/2000/svg" viewBox="0 0 73 74"><path fill-rule="evenodd" d="M72.9 22.45c-.52-5.19-3.17-10.44-7.46-14.78C60.57 2.72 54.71 0 48.94 0c-5.04 0-9.73 2.06-13.57 5.95-4.36 4.43-6.36 9.85-5.78 15.71.35 3.42 1.62 6.86 3.66 10.05l-19.3 19.56-2.46-2.49c-.82-.83-1.7-1.25-2.64-1.25-1.66 0-2.91 1.27-4.24 2.61L2.6 52.19C1.27 53.53.01 54.81.01 56.49c0 .96.41 1.85 1.22 2.68l2.47 2.5-1.94 1.96a6.1 6.1 0 0 0-1.75 4.3c0 1.62.62 3.15 1.76 4.3A5.92 5.92 0 0 0 6 74c1.54 0 3.07-.59 4.24-1.77l31.48-31.92c3.74 2.47 7.81 3.8 11.84 3.8 5.04 0 9.73-2.06 13.57-5.95 4.37-4.43 6.36-9.86 5.77-15.71zM3.3 57.08c-.23-.24-.37-.45-.37-.58 0-.46 1-1.48 1.73-2.22l2.02-2.04c.72-.74 1.72-1.75 2.17-1.75.12 0 .34.14.57.38l2.47 2.5-6.12 6.21-2.47-2.5zm4.88 13.05a3.06 3.06 0 0 1-4.35 0c-.58-.59-.9-1.37-.9-2.2 0-.83.32-1.62.9-2.2l31.16-31.6c.64.8 1.33 1.57 2.07 2.32.73.75 1.5 1.44 2.28 2.09L8.18 70.13zm56.88-34.07c-3.28 3.33-7.26 5.09-11.5 5.09-4.99 0-10.12-2.41-14.44-6.8-3.81-3.86-6.16-8.48-6.62-12.99-.5-4.94 1.21-9.54 4.94-13.31 3.28-3.33 7.26-5.09 11.5-5.09 4.99 0 10.12 2.41 14.44 6.8 3.81 3.86 6.16 8.48 6.62 12.99.49 4.93-1.21 9.54-4.94 13.31zm-5.24-22.69c-3.12-3.16-6.79-4.91-10.35-4.91-3.01 0-5.73 1.21-8.08 3.59-2.63 2.67-3.83 5.9-3.49 9.36.33 3.22 2.03 6.54 4.78 9.33 3.13 3.16 6.8 4.9 10.35 4.9 3.01 0 5.73-1.2 8.08-3.59 2.63-2.66 3.83-5.89 3.49-9.35-.33-3.23-2.03-6.54-4.78-9.33zm-.77 16.59c-1.79 1.81-3.81 2.72-6.02 2.72-2.77 0-5.71-1.43-8.28-4.03-2.28-2.32-3.68-5-3.94-7.54-.26-2.54.66-4.95 2.64-6.96 1.79-1.81 3.81-2.73 6.02-2.73 2.77 0 5.71 1.44 8.28 4.05 2.28 2.3 3.68 4.98 3.94 7.53.26 2.54-.66 4.95-2.64 6.96z"/></svg>