<svg height="73" width="73" xmlns="http://www.w3.org/2000/svg" viewBox="0 0 73 73"><path fill-rule="evenodd" d="M73 33.57c0-3.57-2.58-6.55-5.98-7.18L52.51 9.6a7.302 7.302 0 0 0-7.25-8.15c-2.38 0-4.5 1.14-5.83 2.91L25.91 5.6A8.01 8.01 0 0 0 18.62.02a2.11 2.11 0 0 0-.71 0c-4.31.18-7.69 3.7-7.69 8v7.28C4.16 19.01 0 26.46 0 33.74c0 .36.13.7.36.97.43.48 4.52 4.7 17.89 4.7 13.51 0 17.49-4.24 17.9-4.73.23-.26.35-.59.35-.94 0-7.29-4.16-14.73-10.22-18.44v-.93l13.17-1.2a7.3 7.3 0 0 0 5.81 2.88c.4 0 .8-.03 1.18-.09l12.6 14.62a7.324 7.324 0 0 0 .34 6.65l-15.8 24.09H33.37c-3.91 0-7.09 3.27-7.09 7.3v2.92c0 .81.65 1.46 1.46 1.46h39.42c.81 0 1.46-.65 1.46-1.46v-2.92c0-4.03-3.18-7.3-7.09-7.3h-7.51l13.45-20.66c3.17-.8 5.53-3.67 5.53-7.09zM13.14 8.02c0-2.73 2.15-4.97 4.92-5.09.08 0 .16-.01.14-.02.05.01.22.02.27.03 2.5.11 4.51 1.97 4.84 4.37 0 .03.01.07.01.1.03.2.04.4.04.61v7.79c-3.19.32-7.04.32-10.22 0V8.02zM33.57 33.1c-1.18.91-5.33 3.39-15.32 3.39S4.11 34.01 2.93 33.1c.23-5.61 3.37-11.42 7.83-14.65 2.26.35 4.78.52 7.49.52s5.23-.17 7.49-.52c4.46 3.23 7.6 9.04 7.83 14.65zm-7.29-21.66V8.5l11.8-1.08a7.31 7.31 0 0 0 .06 2.94l-11.86 1.08zm18.98 1.69c-1.61 0-3.02-.87-3.78-2.17-.02-.03-.04-.06-.05-.09a4.39 4.39 0 0 1 .05-4.34c.02-.02.03-.04.04-.06a4.38 4.38 0 0 1 3.74-2.1 4.392 4.392 0 0 1 4.29 5.28l-.03.12a4.385 4.385 0 0 1-4.26 3.36zm4.06 1.69c.81-.55 1.51-1.25 2.05-2.08l12.02 13.91a7.2 7.2 0 0 0-2.58 1.51L49.32 14.82zm12.21 49.42c2.3 0 4.17 1.96 4.17 4.38v1.46H29.2v-1.46c0-2.42 1.87-4.38 4.17-4.38h28.16zm-11-2.92h-3.46l14.34-21.85c.76.56 1.63.97 2.57 1.2L50.53 61.32zm15.82-23.41c-.21.03-.43.04-.65.04-2.41 0-4.38-1.96-4.38-4.38 0-2.41 1.97-4.38 4.38-4.38.12 0 .25.01.37.02.04 0 .09.01.13.01a4.39 4.39 0 0 1 3.88 4.35c0 2.19-1.61 4-3.7 4.33-.01 0-.02 0-.03.01z"/></svg>