<svg xmlns="http://www.w3.org/2000/svg" height="65" width="65" viewBox="0 0 65 65"><path d="M34.252 43.772l-6.228-6.228-5.487 5.42c-3.018 2.98-5.815 5.09-6.216 4.69-.4-.4 2.06-3.515 5.468-6.922l6.194-6.194 2.224 2.224 2.224 2.224 3.803-3.713 3.803-3.714 5.184 5.184c2.852 2.852 4.86 5.51 4.46 5.908-.396.398-2.733-1.25-5.19-3.662l-4.468-4.385-3.024 2.897-3.023 2.896 4.012 4.09C41.89 48.463 42.797 50 41.24 50c-.418 0-3.563-2.803-6.988-6.228zm2.403-18.6c-2.15-2.378-2.095-4.463.174-6.517 2.376-2.15 4.46-2.095 6.515.174 2.15 2.376 2.095 4.46-.174 6.515-2.376 2.15-4.46 2.095-6.515-.174zM42.5 22c0-1.833-.602-2.585-2.254-2.82-2.458-.35-3.853 1.795-2.857 4.39.36.942 1.503 1.442 2.856 1.25 1.652-.235 2.254-.987 2.254-2.82z"/><path stroke-width="2" stroke="#000" fill="none" d="M4 4h61v61H4V4z"/><path stroke-width="2" stroke="#000" fill="none" d="M0 0h61v61H0V0z"/></svg>