<svg height="65" width="65" xmlns="http://www.w3.org/2000/svg" viewBox="0 0 65 65"><path fill-rule="evenodd" d="M19 55v-1-43-1h27v45H19zm25-43H21v41h23V12zm-8.8 3.62h-5.4v-1.87h5.4v1.87zm-2.38 30.83c1.53 0 2.76 1.28 2.76 2.87 0 1.58-1.23 2.87-2.76 2.87-1.52 0-2.75-1.29-2.75-2.87 0-1.59 1.23-2.87 2.75-2.87zm0 3.86c.53 0 .96-.45.96-.99 0-.55-.43-1-.96-1-.52 0-.95.45-.95 1 0 .54.43.99.95.99z"/><path stroke-width="2" stroke="#000" fill="none" d="M4 4h61v61H4V4z"/><path stroke-width="2" stroke="#000" fill="none" d="M0 0h61v61H0V0z"/></svg>