<svg height="65" width="65" xmlns="http://www.w3.org/2000/svg" viewBox="0 0 65 65"><path fill-rule="evenodd" d="M32.5 50C16.83 50 9 32.5 9 32.5S16.83 15 32.5 15C49.15 15 56 32.5 56 32.5S48.17 50 32.5 50zm0-33.06c-12.4 0-19.62 12.28-21.32 15.56 1.71 3.26 8.96 15.56 21.32 15.56 12.45 0 19.68-12.4 21.34-15.6-1.5-3.2-8.15-15.52-21.34-15.52zm0 21.39c-3.24 0-5.87-2.61-5.87-5.83 0-.47.06-.92.16-1.35.38.23.82.38 1.3.38 1.36 0 2.45-1.09 2.45-2.43 0-.7-.3-1.32-.77-1.76a5.87 5.87 0 0 1 2.73-.68c3.24 0 5.88 2.62 5.88 5.84 0 3.22-2.64 5.83-5.88 5.83zm0-9.72h-.03c.02.16.03.32.03.49 0 2.21-1.66 4.04-3.8 4.33.42 1.7 1.96 2.96 3.8 2.96 2.16 0 3.92-1.75 3.92-3.89 0-2.15-1.76-3.89-3.92-3.89z"/><path stroke-width="2" stroke="#000" fill="none" d="M4 4h61v61H4V4z"/><path stroke-width="2" stroke="#000" fill="none" d="M0 0h61v61H0V0z"/></svg>